{
    "asset" : {
        "generator" : "Khronos glTF Blender I/O v1.0.5",
        "version" : "2.0"
    },
    "scene" : 0,
    "scenes" : [
        {
            "name" : "Scene",
            "nodes" : [
                0,
                1
            ]
        }
    ],
    "nodes" : [
        {
            "mesh" : 0,
            "name" : "Cube.003",
            "scale" : [
                0.15839573740959167,
                0.15839573740959167,
                0.15839573740959167
            ],
            "translation" : [
                -0.16700634360313416,
                0.7778865694999695,
                -0.25820374488830566
            ]
        },
        {
            "mesh" : 1,
            "name" : "hill.003",
            "scale" : [
                0.4993496835231781,
                0.4411921799182892,
                0.4993496835231781
            ],
            "translation" : [
                -0.01589837670326233,
                0.2690633535385132,
                0.013306230306625366
            ]
        }
    ],
    "materials" : [
        {
            "doubleSided" : true,
            "name" : "Material.007",
            "pbrMetallicRoughness" : {
                "baseColorFactor" : [
                    0.03741023689508438,
                    0.017335521057248116,
                    0.008848956786096096,
                    1
                ],
                "metallicFactor" : 0,
                "roughnessFactor" : 0.7999999523162842
            }
        },
        {
            "doubleSided" : true,
            "name" : "GRASS2",
            "pbrMetallicRoughness" : {
                "baseColorFactor" : [
                    0.014718680642545223,
                    0.054968882352113724,
                    0.007298239506781101,
                    1
                ],
                "metallicFactor" : 0.40000003576278687,
                "roughnessFactor" : 0.7083333134651184
            }
        },
        {
            "doubleSided" : true,
            "name" : "mud",
            "pbrMetallicRoughness" : {
                "baseColorFactor" : [
                    0.1237097755074501,
                    0.05296076834201813,
                    0.009899004362523556,
                    1
                ],
                "metallicFactor" : 0,
                "roughnessFactor" : 0.7083333134651184
            }
        },
        {
            "doubleSided" : true,
            "name" : "stones ",
            "pbrMetallicRoughness" : {
                "baseColorFactor" : [
                    0.18446926772594452,
                    0.1770893782377243,
                    0.18260805308818817,
                    1
                ],
                "metallicFactor" : 0,
                "roughnessFactor" : 0.5
            }
        }
    ],
    "meshes" : [
        {
            "name" : "Cube.024",
            "primitives" : [
                {
                    "attributes" : {
                        "POSITION" : 0,
                        "NORMAL" : 1,
                        "TANGENT" : 2,
                        "TEXCOORD_0" : 3
                    },
                    "indices" : 4,
                    "material" : 0
                },
                {
                    "attributes" : {
                        "POSITION" : 5,
                        "NORMAL" : 6,
                        "TANGENT" : 7,
                        "TEXCOORD_0" : 8
                    },
                    "indices" : 9,
                    "material" : 1
                }
            ]
        },
        {
            "name" : "Cube.023",
            "primitives" : [
                {
                    "attributes" : {
                        "POSITION" : 10,
                        "NORMAL" : 11,
                        "TEXCOORD_0" : 12
                    },
                    "indices" : 13,
                    "material" : 2
                },
                {
                    "attributes" : {
                        "POSITION" : 14,
                        "NORMAL" : 15,
                        "TEXCOORD_0" : 16
                    },
                    "indices" : 17,
                    "material" : 1
                },
                {
                    "attributes" : {
                        "POSITION" : 18,
                        "NORMAL" : 19,
                        "TEXCOORD_0" : 20
                    },
                    "indices" : 21,
                    "material" : 3
                }
            ]
        }
    ],
    "accessors" : [
        {
            "bufferView" : 0,
            "componentType" : 5126,
            "count" : 5814,
            "max" : [
                4.161318778991699,
                6.826233863830566,
                5.556494235992432
            ],
            "min" : [
                -1.2063429355621338,
                -1.175847053527832,
                -0.09721994400024414
            ],
            "type" : "VEC3"
        },
        {
            "bufferView" : 1,
            "componentType" : 5126,
            "count" : 5814,
            "type" : "VEC3"
        },
        {
            "bufferView" : 2,
            "componentType" : 5126,
            "count" : 5814,
            "type" : "VEC4"
        },
        {
            "bufferView" : 3,
            "componentType" : 5126,
            "count" : 5814,
            "type" : "VEC2"
        },
        {
            "bufferView" : 4,
            "componentType" : 5123,
            "count" : 10728,
            "type" : "SCALAR"
        },
        {
            "bufferView" : 5,
            "componentType" : 5126,
            "count" : 6882,
            "max" : [
                6.727557182312012,
                8.483759880065918,
                6.8280110359191895
            ],
            "min" : [
                -3.481315851211548,
                3.3036627769470215,
                -2.822144031524658
            ],
            "type" : "VEC3"
        },
        {
            "bufferView" : 6,
            "componentType" : 5126,
            "count" : 6882,
            "type" : "VEC3"
        },
        {
            "bufferView" : 7,
            "componentType" : 5126,
            "count" : 6882,
            "type" : "VEC4"
        },
        {
            "bufferView" : 8,
            "componentType" : 5126,
            "count" : 6882,
            "type" : "VEC2"
        },
        {
            "bufferView" : 9,
            "componentType" : 5123,
            "count" : 8100,
            "type" : "SCALAR"
        },
        {
            "bufferView" : 10,
            "componentType" : 5126,
            "count" : 916,
            "max" : [
                1.028140664100647,
                0.549034059047699,
                1.1277135610580444
            ],
            "min" : [
                -1.0089173316955566,
                -0.7044438719749451,
                -0.909625768661499
            ],
            "type" : "VEC3"
        },
        {
            "bufferView" : 11,
            "componentType" : 5126,
            "count" : 916,
            "type" : "VEC3"
        },
        {
            "bufferView" : 12,
            "componentType" : 5126,
            "count" : 916,
            "type" : "VEC2"
        },
        {
            "bufferView" : 13,
            "componentType" : 5123,
            "count" : 984,
            "type" : "SCALAR"
        },
        {
            "bufferView" : 14,
            "componentType" : 5126,
            "count" : 1158,
            "max" : [
                1.0709949731826782,
                1.0036225318908691,
                1.2066917419433594
            ],
            "min" : [
                -1.0810548067092896,
                0.4874498248100281,
                -0.9698026180267334
            ],
            "type" : "VEC3"
        },
        {
            "bufferView" : 15,
            "componentType" : 5126,
            "count" : 1158,
            "type" : "VEC3"
        },
        {
            "bufferView" : 16,
            "componentType" : 5126,
            "count" : 1158,
            "type" : "VEC2"
        },
        {
            "bufferView" : 17,
            "componentType" : 5123,
            "count" : 1278,
            "type" : "SCALAR"
        },
        {
            "bufferView" : 18,
            "componentType" : 5126,
            "count" : 5842,
            "max" : [
                1.0818756818771362,
                0.9221137166023254,
                1.2080554962158203
            ],
            "min" : [
                -1.1261497735977173,
                -0.747527539730072,
                -0.9688624739646912
            ],
            "type" : "VEC3"
        },
        {
            "bufferView" : 19,
            "componentType" : 5126,
            "count" : 5842,
            "type" : "VEC3"
        },
        {
            "bufferView" : 20,
            "componentType" : 5126,
            "count" : 5842,
            "type" : "VEC2"
        },
        {
            "bufferView" : 21,
            "componentType" : 5123,
            "count" : 13914,
            "type" : "SCALAR"
        }
    ],
    "bufferViews" : [
        {
            "buffer" : 0,
            "byteLength" : 69768,
            "byteOffset" : 0
        },
        {
            "buffer" : 0,
            "byteLength" : 69768,
            "byteOffset" : 69768
        },
        {
            "buffer" : 0,
            "byteLength" : 93024,
            "byteOffset" : 139536
        },
        {
            "buffer" : 0,
            "byteLength" : 46512,
            "byteOffset" : 232560
        },
        {
            "buffer" : 0,
            "byteLength" : 21456,
            "byteOffset" : 279072
        },
        {
            "buffer" : 0,
            "byteLength" : 82584,
            "byteOffset" : 300528
        },
        {
            "buffer" : 0,
            "byteLength" : 82584,
            "byteOffset" : 383112
        },
        {
            "buffer" : 0,
            "byteLength" : 110112,
            "byteOffset" : 465696
        },
        {
            "buffer" : 0,
            "byteLength" : 55056,
            "byteOffset" : 575808
        },
        {
            "buffer" : 0,
            "byteLength" : 16200,
            "byteOffset" : 630864
        },
        {
            "buffer" : 0,
            "byteLength" : 10992,
            "byteOffset" : 647064
        },
        {
            "buffer" : 0,
            "byteLength" : 10992,
            "byteOffset" : 658056
        },
        {
            "buffer" : 0,
            "byteLength" : 7328,
            "byteOffset" : 669048
        },
        {
            "buffer" : 0,
            "byteLength" : 1968,
            "byteOffset" : 676376
        },
        {
            "buffer" : 0,
            "byteLength" : 13896,
            "byteOffset" : 678344
        },
        {
            "buffer" : 0,
            "byteLength" : 13896,
            "byteOffset" : 692240
        },
        {
            "buffer" : 0,
            "byteLength" : 9264,
            "byteOffset" : 706136
        },
        {
            "buffer" : 0,
            "byteLength" : 2556,
            "byteOffset" : 715400
        },
        {
            "buffer" : 0,
            "byteLength" : 70104,
            "byteOffset" : 717956
        },
        {
            "buffer" : 0,
            "byteLength" : 70104,
            "byteOffset" : 788060
        },
        {
            "buffer" : 0,
            "byteLength" : 46736,
            "byteOffset" : 858164
        },
        {
            "buffer" : 0,
            "byteLength" : 27828,
            "byteOffset" : 904900
        }
    ],
    "buffers" : [
        {
            "byteLength" : 932728,
            "uri" : "data:application/octet-stream;base64,"
        }
    ]
}
