{
    "asset" : {
        "generator" : "Khronos glTF Blender I/O v1.0.5",
        "version" : "2.0"
    },
    "scene" : 0,
    "scenes" : [
        {
            "name" : "Scene",
            "nodes" : [
                0
            ]
        }
    ],
    "nodes" : [
        {
            "mesh" : 0,
            "name" : "hill.002",
            "scale" : [
                0.4993496835231781,
                0.4411921799182892,
                0.4993496835231781
            ],
            "translation" : [
                -0.01589837670326233,
                0.2690633535385132,
                0.013306260108947754
            ]
        }
    ],
    "materials" : [
        {
            "doubleSided" : true,
            "name" : "mud",
            "pbrMetallicRoughness" : {
                "baseColorFactor" : [
                    0.1237097755074501,
                    0.05296076834201813,
                    0.009899004362523556,
                    1
                ],
                "metallicFactor" : 0,
                "roughnessFactor" : 0.7083333134651184
            }
        },
        {
            "doubleSided" : true,
            "name" : "GRASS2",
            "pbrMetallicRoughness" : {
                "baseColorFactor" : [
                    0.014718680642545223,
                    0.054968882352113724,
                    0.007298239506781101,
                    1
                ],
                "metallicFactor" : 0.40000003576278687,
                "roughnessFactor" : 0.7083333134651184
            }
        }
    ],
    "meshes" : [
        {
            "name" : "Cube.018",
            "primitives" : [
                {
                    "attributes" : {
                        "POSITION" : 0,
                        "NORMAL" : 1,
                        "TANGENT" : 2,
                        "TEXCOORD_0" : 3
                    },
                    "indices" : 4,
                    "material" : 0
                },
                {
                    "attributes" : {
                        "POSITION" : 5,
                        "NORMAL" : 6,
                        "TANGENT" : 7,
                        "TEXCOORD_0" : 8
                    },
                    "indices" : 9,
                    "material" : 1
                }
            ]
        }
    ],
    "accessors" : [
        {
            "bufferView" : 0,
            "componentType" : 5126,
            "count" : 916,
            "max" : [
                1.0331707000732422,
                0.39944469928741455,
                1.0092689990997314
            ],
            "min" : [
                -1.0038875341415405,
                -0.8540332317352295,
                -1.0280706882476807
            ],
            "type" : "VEC3"
        },
        {
            "bufferView" : 1,
            "componentType" : 5126,
            "count" : 916,
            "type" : "VEC3"
        },
        {
            "bufferView" : 2,
            "componentType" : 5126,
            "count" : 916,
            "type" : "VEC4"
        },
        {
            "bufferView" : 3,
            "componentType" : 5126,
            "count" : 916,
            "type" : "VEC2"
        },
        {
            "bufferView" : 4,
            "componentType" : 5123,
            "count" : 984,
            "type" : "SCALAR"
        },
        {
            "bufferView" : 5,
            "componentType" : 5126,
            "count" : 1158,
            "max" : [
                1.0760250091552734,
                0.8540332317352295,
                1.0882470607757568
            ],
            "min" : [
                -1.0760250091552734,
                0.33786046504974365,
                -1.0882470607757568
            ],
            "type" : "VEC3"
        },
        {
            "bufferView" : 6,
            "componentType" : 5126,
            "count" : 1158,
            "type" : "VEC3"
        },
        {
            "bufferView" : 7,
            "componentType" : 5126,
            "count" : 1158,
            "type" : "VEC4"
        },
        {
            "bufferView" : 8,
            "componentType" : 5126,
            "count" : 1158,
            "type" : "VEC2"
        },
        {
            "bufferView" : 9,
            "componentType" : 5123,
            "count" : 1278,
            "type" : "SCALAR"
        }
    ],
    "bufferViews" : [
        {
            "buffer" : 0,
            "byteLength" : 10992,
            "byteOffset" : 0
        },
        {
            "buffer" : 0,
            "byteLength" : 10992,
            "byteOffset" : 10992
        },
        {
            "buffer" : 0,
            "byteLength" : 14656,
            "byteOffset" : 21984
        },
        {
            "buffer" : 0,
            "byteLength" : 7328,
            "byteOffset" : 36640
        },
        {
            "buffer" : 0,
            "byteLength" : 1968,
            "byteOffset" : 43968
        },
        {
            "buffer" : 0,
            "byteLength" : 13896,
            "byteOffset" : 45936
        },
        {
            "buffer" : 0,
            "byteLength" : 13896,
            "byteOffset" : 59832
        },
        {
            "buffer" : 0,
            "byteLength" : 18528,
            "byteOffset" : 73728
        },
        {
            "buffer" : 0,
            "byteLength" : 9264,
            "byteOffset" : 92256
        },
        {
            "buffer" : 0,
            "byteLength" : 2556,
            "byteOffset" : 101520
        }
    ],
    "buffers" : [
        {
            "byteLength" : 104076,
            "uri" : "data:application/octet-stream;base64,"
        }
    ]
}
