{
    "asset" : {
        "generator" : "Khronos glTF Blender I/O v1.0.5",
        "version" : "2.0"
    },
    "scene" : 0,
    "scenes" : [
        {
            "name" : "Scene",
            "nodes" : [
                0,
                1
            ]
        }
    ],
    "nodes" : [
        {
            "mesh" : 0,
            "name" : "hill.002",
            "scale" : [
                0.4993496835231781,
                0.4411921799182892,
                0.4993496835231781
            ],
            "translation" : [
                -0.01589837670326233,
                0.2621530294418335,
                0.013306260108947754
            ]
        },
        {
            "mesh" : 1,
            "name" : "Cylinder.010",
            "rotation" : [
                0,
                1,
                0,
                -1.6292068494294654e-07
            ],
            "scale" : [
                0.03930075839161873,
                -0.283468633890152,
                0.03930075839161873
            ],
            "translation" : [
                0.27559658885002136,
                0.6851885318756104,
                0.2654505670070648
            ]
        }
    ],
    "materials" : [
        {
            "doubleSided" : true,
            "name" : "mud",
            "pbrMetallicRoughness" : {
                "baseColorFactor" : [
                    0.1237097755074501,
                    0.05296076834201813,
                    0.009899004362523556,
                    1
                ],
                "metallicFactor" : 0,
                "roughnessFactor" : 0.7083333134651184
            }
        },
        {
            "doubleSided" : true,
            "name" : "GRASS2",
            "pbrMetallicRoughness" : {
                "baseColorFactor" : [
                    0.014718680642545223,
                    0.054968882352113724,
                    0.007298239506781101,
                    1
                ],
                "metallicFactor" : 0.40000003576278687,
                "roughnessFactor" : 0.7083333134651184
            }
        },
        {
            "doubleSided" : true,
            "name" : "Material.007",
            "pbrMetallicRoughness" : {
                "baseColorFactor" : [
                    0.03741023689508438,
                    0.017335521057248116,
                    0.008848956786096096,
                    1
                ],
                "metallicFactor" : 0,
                "roughnessFactor" : 0.7999999523162842
            }
        },
        {
            "doubleSided" : true,
            "name" : "Material.002",
            "pbrMetallicRoughness" : {
                "baseColorFactor" : [
                    0.22025467455387115,
                    0.0010457300813868642,
                    0.0010457300813868642,
                    1
                ],
                "metallicFactor" : 0.14166668057441711,
                "roughnessFactor" : 0.5
            }
        },
        {
            "doubleSided" : true,
            "name" : "stone",
            "pbrMetallicRoughness" : {
                "baseColorFactor" : [
                    0.0871400386095047,
                    0.0871400386095047,
                    0.0871400386095047,
                    1
                ],
                "metallicFactor" : 0.125,
                "roughnessFactor" : 0.6916666030883789
            }
        }
    ],
    "meshes" : [
        {
            "name" : "Cube.018",
            "primitives" : [
                {
                    "attributes" : {
                        "POSITION" : 0,
                        "NORMAL" : 1,
                        "TANGENT" : 2,
                        "TEXCOORD_0" : 3
                    },
                    "indices" : 4,
                    "material" : 0
                },
                {
                    "attributes" : {
                        "POSITION" : 5,
                        "NORMAL" : 6,
                        "TANGENT" : 7,
                        "TEXCOORD_0" : 8
                    },
                    "indices" : 9,
                    "material" : 1
                }
            ]
        },
        {
            "name" : "Cylinder.012",
            "primitives" : [
                {
                    "attributes" : {
                        "POSITION" : 10,
                        "NORMAL" : 11,
                        "TEXCOORD_0" : 12
                    },
                    "indices" : 13,
                    "material" : 2
                },
                {
                    "attributes" : {
                        "POSITION" : 14,
                        "NORMAL" : 15,
                        "TEXCOORD_0" : 16
                    },
                    "indices" : 17,
                    "material" : 3
                },
                {
                    "attributes" : {
                        "POSITION" : 18,
                        "NORMAL" : 19,
                        "TEXCOORD_0" : 20
                    },
                    "indices" : 21,
                    "material" : 4
                }
            ]
        }
    ],
    "accessors" : [
        {
            "bufferView" : 0,
            "componentType" : 5126,
            "count" : 916,
            "max" : [
                1.0331707000732422,
                0.39944469928741455,
                1.0092689990997314
            ],
            "min" : [
                -1.0038875341415405,
                -0.8540332317352295,
                -1.0280706882476807
            ],
            "type" : "VEC3"
        },
        {
            "bufferView" : 1,
            "componentType" : 5126,
            "count" : 916,
            "type" : "VEC3"
        },
        {
            "bufferView" : 2,
            "componentType" : 5126,
            "count" : 916,
            "type" : "VEC4"
        },
        {
            "bufferView" : 3,
            "componentType" : 5126,
            "count" : 916,
            "type" : "VEC2"
        },
        {
            "bufferView" : 4,
            "componentType" : 5123,
            "count" : 984,
            "type" : "SCALAR"
        },
        {
            "bufferView" : 5,
            "componentType" : 5126,
            "count" : 1158,
            "max" : [
                1.0760250091552734,
                0.8540332317352295,
                1.0882470607757568
            ],
            "min" : [
                -1.0760250091552734,
                0.33786046504974365,
                -1.0882470607757568
            ],
            "type" : "VEC3"
        },
        {
            "bufferView" : 6,
            "componentType" : 5126,
            "count" : 1158,
            "type" : "VEC3"
        },
        {
            "bufferView" : 7,
            "componentType" : 5126,
            "count" : 1158,
            "type" : "VEC4"
        },
        {
            "bufferView" : 8,
            "componentType" : 5126,
            "count" : 1158,
            "type" : "VEC2"
        },
        {
            "bufferView" : 9,
            "componentType" : 5123,
            "count" : 1278,
            "type" : "SCALAR"
        },
        {
            "bufferView" : 10,
            "componentType" : 5126,
            "count" : 2816,
            "max" : [
                8.358266830444336,
                2.7794551849365234,
                12.732060432434082
            ],
            "min" : [
                -21.843706130981445,
                -1,
                -1
            ],
            "type" : "VEC3"
        },
        {
            "bufferView" : 11,
            "componentType" : 5126,
            "count" : 2816,
            "type" : "VEC3"
        },
        {
            "bufferView" : 12,
            "componentType" : 5126,
            "count" : 2816,
            "type" : "VEC2"
        },
        {
            "bufferView" : 13,
            "componentType" : 5123,
            "count" : 4896,
            "type" : "SCALAR"
        },
        {
            "bufferView" : 14,
            "componentType" : 5126,
            "count" : 750,
            "max" : [
                58.70466995239258,
                2.775613784790039,
                12.632243156433105
            ],
            "min" : [
                6.9809393882751465,
                -0.7004314064979553,
                -0.7780771255493164
            ],
            "type" : "VEC3"
        },
        {
            "bufferView" : 15,
            "componentType" : 5126,
            "count" : 750,
            "type" : "VEC3"
        },
        {
            "bufferView" : 16,
            "componentType" : 5126,
            "count" : 750,
            "type" : "VEC2"
        },
        {
            "bufferView" : 17,
            "componentType" : 5123,
            "count" : 3636,
            "type" : "SCALAR"
        },
        {
            "bufferView" : 18,
            "componentType" : 5126,
            "count" : 96,
            "max" : [
                -5.33003044128418,
                2.31423020362854,
                11.74428939819336
            ],
            "min" : [
                -18.398038864135742,
                0.3492082357406616,
                0.20526504516601562
            ],
            "type" : "VEC3"
        },
        {
            "bufferView" : 19,
            "componentType" : 5126,
            "count" : 96,
            "type" : "VEC3"
        },
        {
            "bufferView" : 20,
            "componentType" : 5126,
            "count" : 96,
            "type" : "VEC2"
        },
        {
            "bufferView" : 21,
            "componentType" : 5123,
            "count" : 144,
            "type" : "SCALAR"
        }
    ],
    "bufferViews" : [
        {
            "buffer" : 0,
            "byteLength" : 10992,
            "byteOffset" : 0
        },
        {
            "buffer" : 0,
            "byteLength" : 10992,
            "byteOffset" : 10992
        },
        {
            "buffer" : 0,
            "byteLength" : 14656,
            "byteOffset" : 21984
        },
        {
            "buffer" : 0,
            "byteLength" : 7328,
            "byteOffset" : 36640
        },
        {
            "buffer" : 0,
            "byteLength" : 1968,
            "byteOffset" : 43968
        },
        {
            "buffer" : 0,
            "byteLength" : 13896,
            "byteOffset" : 45936
        },
        {
            "buffer" : 0,
            "byteLength" : 13896,
            "byteOffset" : 59832
        },
        {
            "buffer" : 0,
            "byteLength" : 18528,
            "byteOffset" : 73728
        },
        {
            "buffer" : 0,
            "byteLength" : 9264,
            "byteOffset" : 92256
        },
        {
            "buffer" : 0,
            "byteLength" : 2556,
            "byteOffset" : 101520
        },
        {
            "buffer" : 0,
            "byteLength" : 33792,
            "byteOffset" : 104076
        },
        {
            "buffer" : 0,
            "byteLength" : 33792,
            "byteOffset" : 137868
        },
        {
            "buffer" : 0,
            "byteLength" : 22528,
            "byteOffset" : 171660
        },
        {
            "buffer" : 0,
            "byteLength" : 9792,
            "byteOffset" : 194188
        },
        {
            "buffer" : 0,
            "byteLength" : 9000,
            "byteOffset" : 203980
        },
        {
            "buffer" : 0,
            "byteLength" : 9000,
            "byteOffset" : 212980
        },
        {
            "buffer" : 0,
            "byteLength" : 6000,
            "byteOffset" : 221980
        },
        {
            "buffer" : 0,
            "byteLength" : 7272,
            "byteOffset" : 227980
        },
        {
            "buffer" : 0,
            "byteLength" : 1152,
            "byteOffset" : 235252
        },
        {
            "buffer" : 0,
            "byteLength" : 1152,
            "byteOffset" : 236404
        },
        {
            "buffer" : 0,
            "byteLength" : 768,
            "byteOffset" : 237556
        },
        {
            "buffer" : 0,
            "byteLength" : 288,
            "byteOffset" : 238324
        }
    ],
    "buffers" : [
        {
            "byteLength" : 238612,
            "uri" : "data:application/octet-stream;base64,"
        }
    ]
}
