{
    "asset" : {
        "generator" : "Khronos glTF Blender I/O v1.0.5",
        "version" : "2.0"
    },
    "scene" : 0,
    "scenes" : [
        {
            "name" : "Scene",
            "nodes" : [
                0
            ]
        }
    ],
    "nodes" : [
        {
            "mesh" : 0,
            "name" : "hill.000",
            "rotation" : [
                0.7071068286895752,
                0,
                0,
                0.7071067094802856
            ],
            "scale" : [
                0.4993496835231781,
                0.4993497431278229,
                0.44119223952293396
            ]
        }
    ],
    "materials" : [
        {
            "doubleSided" : true,
            "name" : "mud",
            "pbrMetallicRoughness" : {
                "baseColorFactor" : [
                    0.1237097755074501,
                    0.05296076834201813,
                    0.009899004362523556,
                    1
                ],
                "metallicFactor" : 0,
                "roughnessFactor" : 0.7083333134651184
            }
        },
        {
            "doubleSided" : true,
            "name" : "GRASS2",
            "pbrMetallicRoughness" : {
                "baseColorFactor" : [
                    0.014718680642545223,
                    0.054968882352113724,
                    0.007298239506781101,
                    1
                ],
                "metallicFactor" : 0.40000003576278687,
                "roughnessFactor" : 0.7083333134651184
            }
        },
        {
            "doubleSided" : true,
            "name" : "plansche",
            "pbrMetallicRoughness" : {
                "baseColorFactor" : [
                    0.1844698041677475,
                    0.15596312284469604,
                    0.13109834492206573,
                    1
                ],
                "metallicFactor" : 0.24166665971279144,
                "roughnessFactor" : 0.574999988079071
            }
        },
        {
            "doubleSided" : true,
            "name" : "sculpture",
            "pbrMetallicRoughness" : {
                "baseColorFactor" : [
                    0.2004413604736328,
                    0.16934970021247864,
                    0.1422407627105713,
                    1
                ],
                "metallicFactor" : 0.24166665971279144,
                "roughnessFactor" : 0.574999988079071
            }
        }
    ],
    "meshes" : [
        {
            "name" : "Cube.000",
            "primitives" : [
                {
                    "attributes" : {
                        "POSITION" : 0,
                        "NORMAL" : 1,
                        "TEXCOORD_0" : 2,
                        "TEXCOORD_1" : 3
                    },
                    "indices" : 4,
                    "material" : 0
                },
                {
                    "attributes" : {
                        "POSITION" : 5,
                        "NORMAL" : 6,
                        "TEXCOORD_0" : 7,
                        "TEXCOORD_1" : 8
                    },
                    "indices" : 9,
                    "material" : 1
                },
                {
                    "attributes" : {
                        "POSITION" : 10,
                        "NORMAL" : 11,
                        "TEXCOORD_0" : 12,
                        "TEXCOORD_1" : 13
                    },
                    "indices" : 14,
                    "material" : 2
                },
                {
                    "attributes" : {
                        "POSITION" : 15,
                        "NORMAL" : 16,
                        "TEXCOORD_0" : 17,
                        "TEXCOORD_1" : 18
                    },
                    "indices" : 19,
                    "material" : 3
                }
            ]
        }
    ],
    "accessors" : [
        {
            "bufferView" : 0,
            "componentType" : 5126,
            "count" : 918,
            "max" : [
                1.0331707000732422,
                1.0092689990997314,
                0.8540332317352295
            ],
            "min" : [
                -1.0038875341415405,
                -1.0280706882476807,
                -0.39944469928741455
            ],
            "type" : "VEC3"
        },
        {
            "bufferView" : 1,
            "componentType" : 5126,
            "count" : 918,
            "type" : "VEC3"
        },
        {
            "bufferView" : 2,
            "componentType" : 5126,
            "count" : 918,
            "type" : "VEC2"
        },
        {
            "bufferView" : 3,
            "componentType" : 5126,
            "count" : 918,
            "type" : "VEC2"
        },
        {
            "bufferView" : 4,
            "componentType" : 5123,
            "count" : 984,
            "type" : "SCALAR"
        },
        {
            "bufferView" : 5,
            "componentType" : 5126,
            "count" : 1160,
            "max" : [
                1.0760250091552734,
                1.0882470607757568,
                -0.33786046504974365
            ],
            "min" : [
                -1.0760250091552734,
                -1.0882470607757568,
                -0.8540332317352295
            ],
            "type" : "VEC3"
        },
        {
            "bufferView" : 6,
            "componentType" : 5126,
            "count" : 1160,
            "type" : "VEC3"
        },
        {
            "bufferView" : 7,
            "componentType" : 5126,
            "count" : 1160,
            "type" : "VEC2"
        },
        {
            "bufferView" : 8,
            "componentType" : 5126,
            "count" : 1160,
            "type" : "VEC2"
        },
        {
            "bufferView" : 9,
            "componentType" : 5123,
            "count" : 1278,
            "type" : "SCALAR"
        },
        {
            "bufferView" : 10,
            "componentType" : 5126,
            "count" : 5904,
            "max" : [
                0.9449592232704163,
                0.9417353868484497,
                -0.742229163646698
            ],
            "min" : [
                -0.8103991746902466,
                -0.7411620616912842,
                -1.5760185718536377
            ],
            "type" : "VEC3"
        },
        {
            "bufferView" : 11,
            "componentType" : 5126,
            "count" : 5904,
            "type" : "VEC3"
        },
        {
            "bufferView" : 12,
            "componentType" : 5126,
            "count" : 5904,
            "type" : "VEC2"
        },
        {
            "bufferView" : 13,
            "componentType" : 5126,
            "count" : 5904,
            "type" : "VEC2"
        },
        {
            "bufferView" : 14,
            "componentType" : 5123,
            "count" : 9270,
            "type" : "SCALAR"
        },
        {
            "bufferView" : 15,
            "componentType" : 5126,
            "count" : 12942,
            "max" : [
                0.8262166380882263,
                0.14846432209014893,
                -1.4993841648101807
            ],
            "min" : [
                0.4632834196090698,
                -0.2458019256591797,
                -1.9998688697814941
            ],
            "type" : "VEC3"
        },
        {
            "bufferView" : 16,
            "componentType" : 5126,
            "count" : 12942,
            "type" : "VEC3"
        },
        {
            "bufferView" : 17,
            "componentType" : 5126,
            "count" : 12942,
            "type" : "VEC2"
        },
        {
            "bufferView" : 18,
            "componentType" : 5126,
            "count" : 12942,
            "type" : "VEC2"
        },
        {
            "bufferView" : 19,
            "componentType" : 5123,
            "count" : 12942,
            "type" : "SCALAR"
        }
    ],
    "bufferViews" : [
        {
            "buffer" : 0,
            "byteLength" : 11016,
            "byteOffset" : 0
        },
        {
            "buffer" : 0,
            "byteLength" : 11016,
            "byteOffset" : 11016
        },
        {
            "buffer" : 0,
            "byteLength" : 7344,
            "byteOffset" : 22032
        },
        {
            "buffer" : 0,
            "byteLength" : 7344,
            "byteOffset" : 29376
        },
        {
            "buffer" : 0,
            "byteLength" : 1968,
            "byteOffset" : 36720
        },
        {
            "buffer" : 0,
            "byteLength" : 13920,
            "byteOffset" : 38688
        },
        {
            "buffer" : 0,
            "byteLength" : 13920,
            "byteOffset" : 52608
        },
        {
            "buffer" : 0,
            "byteLength" : 9280,
            "byteOffset" : 66528
        },
        {
            "buffer" : 0,
            "byteLength" : 9280,
            "byteOffset" : 75808
        },
        {
            "buffer" : 0,
            "byteLength" : 2556,
            "byteOffset" : 85088
        },
        {
            "buffer" : 0,
            "byteLength" : 70848,
            "byteOffset" : 87644
        },
        {
            "buffer" : 0,
            "byteLength" : 70848,
            "byteOffset" : 158492
        },
        {
            "buffer" : 0,
            "byteLength" : 47232,
            "byteOffset" : 229340
        },
        {
            "buffer" : 0,
            "byteLength" : 47232,
            "byteOffset" : 276572
        },
        {
            "buffer" : 0,
            "byteLength" : 18540,
            "byteOffset" : 323804
        },
        {
            "buffer" : 0,
            "byteLength" : 155304,
            "byteOffset" : 342344
        },
        {
            "buffer" : 0,
            "byteLength" : 155304,
            "byteOffset" : 497648
        },
        {
            "buffer" : 0,
            "byteLength" : 103536,
            "byteOffset" : 652952
        },
        {
            "buffer" : 0,
            "byteLength" : 103536,
            "byteOffset" : 756488
        },
        {
            "buffer" : 0,
            "byteLength" : 25884,
            "byteOffset" : 860024
        }
    ],
    "buffers" : [
        {
            "byteLength" : 885908,
            "uri" : "data:application/octet-stream;base64,"
        }
    ]
}
