{
    "asset" : {
        "generator" : "Khronos glTF Blender I/O v1.0.5",
        "version" : "2.0"
    },
    "scene" : 0,
    "scenes" : [
        {
            "name" : "Scene",
            "nodes" : [
                0,
                1
            ]
        }
    ],
    "nodes" : [
        {
            "mesh" : 0,
            "name" : "hill.003",
            "scale" : [
                0.4993496835231781,
                0.4411921799182892,
                0.4993496835231781
            ],
            "translation" : [
                0.0003959925379604101,
                0.2690633535385132,
                -0.001039160881191492
            ]
        },
        {
            "mesh" : 1,
            "name" : "Cylinder.005",
            "rotation" : [
                -0.7071067690849304,
                0,
                0,
                0.7071067690849304
            ],
            "scale" : [
                0.018709421157836914,
                0.4111707806587219,
                0.018709421157836914
            ],
            "translation" : [
                -0.033345699310302734,
                1.0868133306503296,
                0.06765605509281158
            ]
        }
    ],
    "materials" : [
        {
            "doubleSided" : true,
            "name" : "mud",
            "pbrMetallicRoughness" : {
                "baseColorFactor" : [
                    0.1237097755074501,
                    0.05296076834201813,
                    0.009899004362523556,
                    1
                ],
                "metallicFactor" : 0,
                "roughnessFactor" : 0.7083333134651184
            }
        },
        {
            "doubleSided" : true,
            "name" : "GRASS2",
            "pbrMetallicRoughness" : {
                "baseColorFactor" : [
                    0.014718680642545223,
                    0.054968882352113724,
                    0.007298239506781101,
                    1
                ],
                "metallicFactor" : 0.40000003576278687,
                "roughnessFactor" : 0.7083333134651184
            }
        },
        {
            "doubleSided" : true,
            "name" : "stones ",
            "pbrMetallicRoughness" : {
                "baseColorFactor" : [
                    0.18446926772594452,
                    0.1770893782377243,
                    0.18260805308818817,
                    1
                ],
                "metallicFactor" : 0,
                "roughnessFactor" : 0.5
            }
        },
        {
            "doubleSided" : true,
            "name" : "Material.007",
            "pbrMetallicRoughness" : {
                "baseColorFactor" : [
                    0.03741023689508438,
                    0.017335521057248116,
                    0.008848956786096096,
                    1
                ],
                "metallicFactor" : 0,
                "roughnessFactor" : 0.7999999523162842
            }
        },
        {
            "doubleSided" : true,
            "name" : "swing blue",
            "pbrMetallicRoughness" : {
                "baseColorFactor" : [
                    0.048389676958322525,
                    0.036791518330574036,
                    0.9258272647857666,
                    1
                ],
                "metallicFactor" : 0.4749999940395355,
                "roughnessFactor" : 0.5
            }
        },
        {
            "doubleSided" : true,
            "name" : "stone",
            "pbrMetallicRoughness" : {
                "baseColorFactor" : [
                    0.0871400386095047,
                    0.0871400386095047,
                    0.0871400386095047,
                    1
                ],
                "metallicFactor" : 0.125,
                "roughnessFactor" : 0.6916666030883789
            }
        }
    ],
    "meshes" : [
        {
            "name" : "Cube.023",
            "primitives" : [
                {
                    "attributes" : {
                        "POSITION" : 0,
                        "NORMAL" : 1,
                        "TEXCOORD_0" : 2
                    },
                    "indices" : 3,
                    "material" : 0
                },
                {
                    "attributes" : {
                        "POSITION" : 4,
                        "NORMAL" : 5,
                        "TEXCOORD_0" : 6
                    },
                    "indices" : 7,
                    "material" : 1
                },
                {
                    "attributes" : {
                        "POSITION" : 8,
                        "NORMAL" : 9,
                        "TEXCOORD_0" : 10
                    },
                    "indices" : 11,
                    "material" : 2
                }
            ]
        },
        {
            "name" : "Cylinder.004",
            "primitives" : [
                {
                    "attributes" : {
                        "POSITION" : 12,
                        "NORMAL" : 13,
                        "TEXCOORD_0" : 14
                    },
                    "indices" : 15,
                    "material" : 3
                },
                {
                    "attributes" : {
                        "POSITION" : 16,
                        "NORMAL" : 17,
                        "TEXCOORD_0" : 18
                    },
                    "indices" : 19,
                    "material" : 4
                },
                {
                    "attributes" : {
                        "POSITION" : 20,
                        "NORMAL" : 21,
                        "TEXCOORD_0" : 22
                    },
                    "indices" : 23,
                    "material" : 5
                }
            ]
        }
    ],
    "accessors" : [
        {
            "bufferView" : 0,
            "componentType" : 5126,
            "count" : 916,
            "max" : [
                1.028140664100647,
                0.549034059047699,
                1.1277135610580444
            ],
            "min" : [
                -1.0089173316955566,
                -0.7044438719749451,
                -0.909625768661499
            ],
            "type" : "VEC3"
        },
        {
            "bufferView" : 1,
            "componentType" : 5126,
            "count" : 916,
            "type" : "VEC3"
        },
        {
            "bufferView" : 2,
            "componentType" : 5126,
            "count" : 916,
            "type" : "VEC2"
        },
        {
            "bufferView" : 3,
            "componentType" : 5123,
            "count" : 984,
            "type" : "SCALAR"
        },
        {
            "bufferView" : 4,
            "componentType" : 5126,
            "count" : 1158,
            "max" : [
                1.0709949731826782,
                1.0036225318908691,
                1.2066917419433594
            ],
            "min" : [
                -1.0810548067092896,
                0.4874498248100281,
                -0.9698026180267334
            ],
            "type" : "VEC3"
        },
        {
            "bufferView" : 5,
            "componentType" : 5126,
            "count" : 1158,
            "type" : "VEC3"
        },
        {
            "bufferView" : 6,
            "componentType" : 5126,
            "count" : 1158,
            "type" : "VEC2"
        },
        {
            "bufferView" : 7,
            "componentType" : 5123,
            "count" : 1278,
            "type" : "SCALAR"
        },
        {
            "bufferView" : 8,
            "componentType" : 5126,
            "count" : 5842,
            "max" : [
                1.0818756818771362,
                0.9221137166023254,
                1.2080554962158203
            ],
            "min" : [
                -1.1261497735977173,
                -0.747527539730072,
                -0.9688624739646912
            ],
            "type" : "VEC3"
        },
        {
            "bufferView" : 9,
            "componentType" : 5126,
            "count" : 5842,
            "type" : "VEC3"
        },
        {
            "bufferView" : 10,
            "componentType" : 5126,
            "count" : 5842,
            "type" : "VEC2"
        },
        {
            "bufferView" : 11,
            "componentType" : 5123,
            "count" : 13914,
            "type" : "SCALAR"
        },
        {
            "bufferView" : 12,
            "componentType" : 5126,
            "count" : 3264,
            "max" : [
                11.833700180053711,
                1.1369611024856567,
                19.35135269165039
            ],
            "min" : [
                -10.663864135742188,
                -1.0849014520645142,
                -24.41304588317871
            ],
            "type" : "VEC3"
        },
        {
            "bufferView" : 13,
            "componentType" : 5126,
            "count" : 3264,
            "type" : "VEC3"
        },
        {
            "bufferView" : 14,
            "componentType" : 5126,
            "count" : 3264,
            "type" : "VEC2"
        },
        {
            "bufferView" : 15,
            "componentType" : 5123,
            "count" : 6324,
            "type" : "SCALAR"
        },
        {
            "bufferView" : 16,
            "componentType" : 5126,
            "count" : 1920,
            "max" : [
                0.9146008491516113,
                1.0496790409088135,
                19.627248764038086
            ],
            "min" : [
                -1.6371841430664062,
                -1.036727786064148,
                -10.162721633911133
            ],
            "type" : "VEC3"
        },
        {
            "bufferView" : 17,
            "componentType" : 5126,
            "count" : 1920,
            "type" : "VEC3"
        },
        {
            "bufferView" : 18,
            "componentType" : 5126,
            "count" : 1920,
            "type" : "VEC2"
        },
        {
            "bufferView" : 19,
            "componentType" : 5123,
            "count" : 3720,
            "type" : "SCALAR"
        },
        {
            "bufferView" : 20,
            "componentType" : 5126,
            "count" : 48,
            "max" : [
                3.3843626976013184,
                0.6250818371772766,
                -13.275374412536621
            ],
            "min" : [
                -2.9596967697143555,
                -0.6158217787742615,
                -14.585370063781738
            ],
            "type" : "VEC3"
        },
        {
            "bufferView" : 21,
            "componentType" : 5126,
            "count" : 48,
            "type" : "VEC3"
        },
        {
            "bufferView" : 22,
            "componentType" : 5126,
            "count" : 48,
            "type" : "VEC2"
        },
        {
            "bufferView" : 23,
            "componentType" : 5123,
            "count" : 72,
            "type" : "SCALAR"
        }
    ],
    "bufferViews" : [
        {
            "buffer" : 0,
            "byteLength" : 10992,
            "byteOffset" : 0
        },
        {
            "buffer" : 0,
            "byteLength" : 10992,
            "byteOffset" : 10992
        },
        {
            "buffer" : 0,
            "byteLength" : 7328,
            "byteOffset" : 21984
        },
        {
            "buffer" : 0,
            "byteLength" : 1968,
            "byteOffset" : 29312
        },
        {
            "buffer" : 0,
            "byteLength" : 13896,
            "byteOffset" : 31280
        },
        {
            "buffer" : 0,
            "byteLength" : 13896,
            "byteOffset" : 45176
        },
        {
            "buffer" : 0,
            "byteLength" : 9264,
            "byteOffset" : 59072
        },
        {
            "buffer" : 0,
            "byteLength" : 2556,
            "byteOffset" : 68336
        },
        {
            "buffer" : 0,
            "byteLength" : 70104,
            "byteOffset" : 70892
        },
        {
            "buffer" : 0,
            "byteLength" : 70104,
            "byteOffset" : 140996
        },
        {
            "buffer" : 0,
            "byteLength" : 46736,
            "byteOffset" : 211100
        },
        {
            "buffer" : 0,
            "byteLength" : 27828,
            "byteOffset" : 257836
        },
        {
            "buffer" : 0,
            "byteLength" : 39168,
            "byteOffset" : 285664
        },
        {
            "buffer" : 0,
            "byteLength" : 39168,
            "byteOffset" : 324832
        },
        {
            "buffer" : 0,
            "byteLength" : 26112,
            "byteOffset" : 364000
        },
        {
            "buffer" : 0,
            "byteLength" : 12648,
            "byteOffset" : 390112
        },
        {
            "buffer" : 0,
            "byteLength" : 23040,
            "byteOffset" : 402760
        },
        {
            "buffer" : 0,
            "byteLength" : 23040,
            "byteOffset" : 425800
        },
        {
            "buffer" : 0,
            "byteLength" : 15360,
            "byteOffset" : 448840
        },
        {
            "buffer" : 0,
            "byteLength" : 7440,
            "byteOffset" : 464200
        },
        {
            "buffer" : 0,
            "byteLength" : 576,
            "byteOffset" : 471640
        },
        {
            "buffer" : 0,
            "byteLength" : 576,
            "byteOffset" : 472216
        },
        {
            "buffer" : 0,
            "byteLength" : 384,
            "byteOffset" : 472792
        },
        {
            "buffer" : 0,
            "byteLength" : 144,
            "byteOffset" : 473176
        }
    ],
    "buffers" : [
        {
            "byteLength" : 473320,
            "uri" : "data:application/octet-stream;base64,"
        }
    ]
}
